# xmcd CD database file
#
# Track frame offsets:
#	150
#	25385
#	60275
#	101742
#	127692
#	172032
#	231307
#	271487
#	281925
#
# Disc length: 4345 seconds
#
# Revision: 1
# Processed by: cddbd v1.5.1PL2 Copyright (c) Steve Scherf et al.
# Submitted via: CDex 1.51
#
DISCID=7e10f709
DTITLE=Mind's Eye - Angst for the Spoiler
DYEAR=1900
DGENRE=Jazz
TTITLE0=the roost (smith)
TTITLE1=it's news to me (lockwood)
TTITLE2=t. rex (smith)
TTITLE3=possibilities(lockwood)
TTITLE4=eavesdroppin' (talaga)
TTITLE5=iroquois (smith)
TTITLE6=sister mister (talaga)
TTITLE7=t. rex swagger (smith/hall)
TTITLE8=angst for the spoiler (talaga)
EXTD=
EXTT0=
EXTT1=
EXTT2=
EXTT3=
EXTT4=
EXTT5=
EXTT6=
EXTT7=
EXTT8=
PLAYORDER=
